# xmcd
#
# Track frame offsets:
#	150
#	18734
#	31045
#	45744
#	59838
#	74408
#	87754
#	100992
#	115664
#	129309
#	143477
#	162788
#	176406
#	192357
#	205544
#	221272
#	236238
#	250622
#	262769
#	281632
#	300162
#	314916
#
# Disc length: 4348 seconds
#
# Revision: 0
# Processed by: cddbd v1.4PL0 Copyright (c) Steve Scherf et al.
# Submitted via: audiograbber 1.81.01
#
DISCID=2e10fa16
DTITLE=Various Country Artists - (Time Life) Contemporary Country- The Early '8
DTITLE=0's
DYEAR=80
DGENRE=Country
TTITLE0=Earl Thomas Conley - Somewhere Between Right And Wrong
TTITLE1=John Anderson - Wild And Blue
TTITLE2=Roseanne Cash - Seven Year Ache
TTITLE3=Ronnie McDowell - You're Gonna Ruin My Bad Reputation
TTITLE4=Alabama - Love In The First Degree
TTITLE5=Gatlin Brothers - Houston (Means I'm One Day Closer To You)
TTITLE6=Conway Twitty - Slow Hand
TTITLE7=Ronnie Milsap - (There's) No Gettin' Over Me
TTITLE8=Ricky Skaggs - Crying My Heart Out Over You
TTITLE9=Dolly Parton - I Will Always Love You
TTITLE10=Hank Williams Jr. - A Country Boy Can Survive
TTITLE11=Merle Haggaard - Big City
TTITLE12=Johnny Lee - Lookin' For Love
TTITLE13=Reba McEntire - You're The First Time I've Thought About Leaving
TTITLE14=Shelly West and David Frizzell - You're The Reason God Made Okahoma
TTITLE15=George Jones - He Stopped Loving Her Today
TTITLE16=Eddie Rabbitt - I Love A Rainy Night
TTITLE17=Oak Ridge Boys - American Made
TTITLE18=Dolly Parton - Islands In The Stream- Rogers, Kenny
TTITLE19=Don Williams - I Believe In You
TTITLE20=Anne Murray - Could I Have This Dance
TTITLE21=Willie Nelson, - Nelson, Willie
EXTD=
EXTT0=
EXTT1=
EXTT2=
EXTT3=
EXTT4=
EXTT5=
EXTT6=
EXTT7=
EXTT8=
EXTT9=
EXTT10=
EXTT11=
EXTT12=
EXTT13=
EXTT14=
EXTT15=
EXTT16=
EXTT17=
EXTT18=
EXTT19=
EXTT20=
EXTT21=
PLAYORDER=
